<svg id="Layer_1" data-name="Layer 1" xmlns="http://www.w3.org/2000/svg" viewBox="0 0 71.5 71.5">
  <title>logo</title>
  <g>
    <g>
      <polygon points="10.21 10.21 10.21 0 0 0 0 10.21 0 10.21 0 20.42 10.21 20.42 10.21 10.21 10.21 10.21" fill="#485e33"/>
      <polygon points="61.29 0 61.29 10.21 61.29 10.21 61.29 20.42 71.5 20.42 71.5 10.21 71.5 10.21 71.5 0 61.29 0" fill="#485e33"/>
      <polygon points="40.86 20.42 30.64 20.42 20.43 20.42 10.21 20.42 10.21 30.64 0 30.64 0 40.85 0 51.07 0 61.28 10.21 61.28 10.21 71.5 20.43 71.5 30.64 71.5 40.86 71.5 51.07 71.5 61.29 71.5 61.29 61.28 71.5 61.28 71.5 51.07 71.5 40.85 71.5 30.64 61.29 30.64 61.29 20.42 51.07 20.42 40.86 20.42" fill="#485e33"/>
    </g>
    <g>
      <path d="M51.07,30.64H10.21V61.28H61.29V30.64Z" fill="#bbd37a"/>
      <rect x="10.21" y="30.64" width="10.21" height="10.21" fill="#d9e6af"/>
      <g>
        <rect x="20.43" y="40.85" width="10.21" height="10.21" fill="#302c2b"/>
        <rect x="40.86" y="40.85" width="10.21" height="10.21" fill="#302c2b"/>
      </g>
    </g>
  </g>
</svg>
